<?xml version="1.0" standalone="no"?>
<!DOCTYPE svg PUBLIC "-//W3C//DTD SVG 20010904//EN"
 "http://www.w3.org/TR/2001/REC-SVG-20010904/DTD/svg10.dtd">
<svg version="1.0" xmlns="http://www.w3.org/2000/svg"
 width="700.000000pt" height="700.000000pt" viewBox="0 0 700.000000 700.000000"
 preserveAspectRatio="xMidYMid meet">
<metadata>
Created by potrace 1.11, written by Peter Selinger 2001-2013
</metadata>
<g transform="translate(0.000000,700.000000) scale(0.100000,-0.100000)"
fill="#000000" stroke="none">
<path d="M5399 6996 c-2 -2 -49 -7 -104 -10 -55 -4 -109 -9 -120 -11 -11 -3
-40 -7 -65 -10 -51 -5 -72 -9 -185 -31 -103 -21 -198 -45 -305 -79 -47 -15
-95 -29 -108 -32 -12 -3 -25 -9 -28 -14 -3 -5 -12 -9 -20 -9 -9 0 -40 -11 -70
-25 -30 -14 -57 -25 -60 -25 -3 0 -53 -23 -112 -52 -394 -191 -759 -485 -1088
-878 -68 -81 -115 -143 -271 -355 -12 -17 -45 -67 -74 -112 -28 -46 -57 -87
-64 -93 -7 -6 -283 -10 -757 -10 -704 -1 -749 -2 -813 -20 -136 -39 -262 -116
-354 -217 -56 -61 -88 -119 -415 -772 -195 -389 -362 -733 -371 -764 -38 -132
14 -277 129 -356 84 -58 84 -58 866 -59 393 0 719 -1 724 -1 6 -1 -70 -81
-167 -180 -150 -151 -181 -188 -206 -243 -69 -151 -59 -305 29 -434 22 -33
208 -226 417 -435 409 -406 419 -414 553 -442 70 -15 129 -14 199 3 92 23 142
59 323 238 98 96 178 171 179 166 0 -5 1 -342 2 -749 l2 -740 34 -63 c75 -138
197 -195 366 -172 17 2 358 168 760 369 l729 365 72 70 c121 120 198 268 219
421 1 11 3 351 4 755 l2 735 112 74 c268 179 506 370 702 566 147 146 171 173
274 300 66 82 231 317 231 329 0 3 12 22 26 43 40 59 159 307 202 423 57 150
113 344 136 470 3 14 9 48 15 77 13 65 29 192 39 303 14 171 5 960 -12 989 -2
3 -7 35 -10 71 -7 74 -11 101 -32 220 -8 47 -18 99 -20 115 -13 74 -65 149
-124 180 -28 15 -93 33 -136 39 -16 2 -72 11 -124 19 -144 24 -164 26 -247 33
-43 3 -89 8 -103 11 -28 5 -775 14 -781 9z m-41 -1210 c110 -20 245 -102 318
-194 77 -99 115 -201 119 -322 9 -308 -236 -564 -540 -564 -121 0 -206 26
-311 94 -206 135 -292 407 -204 643 92 247 349 389 618 343z"/>
</g>
</svg>
